# Blender 4.3.2
# www.blender.org
mtllib room.mtl
o Floor
v -3.000000 0.000000 3.000000
v 3.000000 0.000000 3.000000
v -3.000000 0.000000 -3.000000
v 3.000000 0.000000 -3.000000
vn -0.0000 1.0000 -0.0000
vt -2.751626 3.751626
vt -2.751626 -2.751626
vt 3.751627 -2.751626
vt 3.751626 3.751626
s 0
usemtl Moquette
f 1/1/1 2/2/1 4/3/1 3/4/1
o Ceil
v -1.500000 3.820000 1.500000
v -3.000000 3.840285 3.000000
v -1.500000 3.820000 -1.500000
v -3.000000 3.840285 -3.000000
v 1.500000 3.820000 1.500000
v 3.000000 3.840285 3.000000
v 1.500000 3.820000 -1.500000
v 3.000000 3.840285 -3.000000
v -3.000000 3.400000 -3.000000
v -3.000000 3.400000 3.000000
v 3.000000 3.400000 -3.000000
v 3.000000 3.400000 3.000000
v -3.000000 3.400000 -3.000000
v -3.000000 3.400000 3.000000
v 3.000000 3.400000 -3.000000
v 3.000000 3.400000 3.000000
v -3.000000 3.400000 -3.000000
v -3.000000 3.400000 3.000000
v 3.000000 3.400000 -3.000000
v 3.000000 3.400000 3.000000
vn -1.0000 -0.0000 -0.0000
vn -0.0000 -0.0000 -1.0000
vn 1.0000 -0.0000 -0.0000
vn -0.0000 -0.0000 1.0000
vn -0.0000 -1.0000 -0.0000
vn -0.0000 1.0000 -0.0000
vn 0.2696 -0.9630 -0.0000
vn -0.0000 -0.9630 0.2696
vn -0.2696 -0.9630 -0.0000
vn -0.0000 -0.9630 -0.2696
vt 0.375000 0.000000
vt 0.625000 0.000000
vt 0.625000 0.250000
vt 0.375000 0.250000
vt 0.625000 0.500000
vt 0.375000 0.500000
vt 0.625000 0.750000
vt 0.375000 0.750000
vt 0.625000 1.000000
vt 0.375000 1.000000
vt -1.070911 -0.558108
vt 1.551225 -0.558108
vt 1.551226 2.064030
vt -1.070911 2.064029
vt 0.875000 0.500000
vt 0.875000 0.750000
vt 0.125000 0.500000
vt 0.125000 0.750000
vt -2.381980 3.375097
vt -2.381980 -1.869176
vt 2.862293 -1.869176
vt 2.862293 3.375097
s 0
usemtl Checked
f 14/5/2 6/6/2 8/7/2 13/8/2
f 13/8/3 8/7/3 12/9/3 15/10/3
f 15/10/4 12/9/4 10/11/4 16/12/4
f 16/12/5 10/11/5 6/13/5 14/14/5
f 7/15/6 11/16/6 9/17/6 5/18/6
f 12/9/7 8/19/7 6/20/7 10/11/7
f 17/21/7 18/22/7 14/22/7 13/21/7
f 19/10/7 17/21/7 13/21/7 15/10/7
f 20/12/7 19/10/7 15/10/7 16/12/7
f 18/22/7 20/12/7 16/12/7 14/22/7
f 21/21/7 22/22/7 18/22/7 17/21/7
f 23/10/7 21/21/7 17/21/7 19/10/7
f 24/12/7 23/10/7 19/10/7 20/12/7
f 22/22/7 24/12/7 20/12/7 18/22/7
f 7/15/8 5/18/8 22/23/8 21/24/8
f 11/16/9 7/15/9 21/24/9 23/25/9
f 9/17/10 11/16/10 23/25/10 24/26/10
f 5/18/11 9/17/11 24/26/11 22/23/11
o Walls
v -3.000000 -0.100000 3.000000
v -3.000000 3.848722 3.000000
v -3.000000 -0.100000 -3.000000
v -3.000000 3.848722 -3.000000
v 3.000000 -0.100000 3.000000
v 3.000000 3.848722 3.000000
v 3.000000 -0.100000 -3.000000
v 3.000000 3.848722 -3.000000
vn -1.0000 -0.0000 -0.0000
vn -0.0000 -0.0000 -1.0000
vn 1.0000 -0.0000 -0.0000
vn -0.0000 -0.0000 1.0000
vn -0.0000 -1.0000 -0.0000
vn -0.0000 1.0000 -0.0000
vt -0.004778 0.784703
vt -0.004778 -0.048110
vt 0.879778 -0.048110
vt 0.879778 0.784703
vt 0.007047 0.830370
vt 0.007047 -0.065889
vt 0.914065 -0.065889
vt 0.914065 0.830370
vt 0.080829 0.793758
vt 0.080829 -0.054499
vt 0.813640 -0.054499
vt 0.813640 0.793758
vt 0.057539 0.728986
vt 0.057539 -0.042347
vt 0.793101 -0.042347
vt 0.793101 0.728986
vt 0.125000 0.500000
vt 0.375000 0.500000
vt 0.375000 0.750000
vt 0.125000 0.750000
vt 0.625000 0.500000
vt 0.875000 0.500000
vt 0.875000 0.750000
vt 0.625000 0.750000
s 0
usemtl Wall
f 25/27/12 26/28/12 28/29/12 27/30/12
f 27/31/13 28/32/13 32/33/13 31/34/13
f 31/35/14 32/36/14 30/37/14 29/38/14
f 29/39/15 30/40/15 26/41/15 25/42/15
f 27/43/16 31/44/16 29/45/16 25/46/16
f 32/47/17 28/48/17 26/49/17 30/50/17
