# Blender 4.3.2
# www.blender.org
mtllib stage.mtl
o Stage
v -3.000000 0.000000 1.500000
v -3.000000 0.400000 1.500000
v -3.000000 0.000000 -1.500000
v -3.000000 0.400000 -1.500000
v 0.000000 0.000000 0.600000
v -0.900000 0.000000 1.500000
v -0.900000 0.400000 1.500000
v 0.000000 0.400000 0.600000
v -0.900000 0.000000 -1.500000
v 0.000000 0.000000 -0.600000
v 0.000000 0.400000 -0.600000
v -0.900000 0.400000 -1.500000
vn -1.0000 -0.0000 -0.0000
vn 1.0000 -0.0000 -0.0000
vn -0.0000 -0.0000 1.0000
vn -0.0000 1.0000 -0.0000
vn 0.7071 -0.0000 0.7071
vn -0.0000 -0.0000 -1.0000
vn 0.7071 -0.0000 -0.7071
vn -0.0000 -1.0000 -0.0000
vt 0.375000 0.000000
vt 0.625000 0.000000
vt 0.625000 0.250000
vt 0.375000 0.250000
vt -0.726940 1.024283
vt -0.726940 -0.055533
vt 2.074181 -0.055533
vt 2.074182 1.024283
vt 6.275864 1.024283
vt 6.275864 -0.055533
vt 11.177832 -0.055534
vt 11.177832 1.024283
vt -1.009009 0.038584
vt 0.022960 -0.993384
vt 2.430884 -0.993384
vt 2.430884 2.446509
vt 0.022960 2.446509
vt -1.009009 1.414541
vt -9.830585 1.024284
vt -9.830585 -0.055533
vt -4.928622 -0.055533
vt -4.928622 1.024283
vt 0.125000 0.500000
vt 0.300000 0.500000
vt 0.375000 0.575000
vt 0.375000 0.675000
vt 0.300000 0.750000
vt 0.125000 0.750000
s 0
usemtl Checked
f 1/1/1 2/2/1 4/3/1 3/4/1
f 11/13/4 12/14/4 4/15/4 2/16/4 7/17/4 8/18/4
f 3/23/8 9/24/8 10/25/8 5/26/8 6/27/8 1/28/8
usemtl Wood
f 10/5/2 11/6/2 8/7/2 5/8/2
f 6/9/3 7/10/3 2/11/3 1/12/3
f 7/10/5 6/9/5 5/8/5 8/7/5
f 3/19/6 4/20/6 12/21/6 9/22/6
f 11/6/7 10/5/7 9/22/7 12/21/7
