# Blender 4.3.2
# www.blender.org
mtllib bridge.mtl
o Bridge
v -0.997233 0.150000 -0.300000
v -1.757233 0.550000 -0.300000
v -0.997233 0.150000 -0.500000
v -1.757233 0.550000 -0.500000
v -0.997233 0.350000 -0.300000
v -1.757233 0.350000 -0.300000
v -1.757233 0.350000 -0.500000
v -0.997233 0.350000 -0.500000
v -0.997233 0.350000 -0.300000
v -1.757233 0.550000 -0.300000
v -1.757233 0.550000 -0.500000
v -0.997233 0.350000 -0.500000
v -1.757233 0.350000 -0.300000
v -0.997233 0.150000 -0.300000
v -0.997233 0.150000 -0.500000
v -1.757233 0.350000 -0.500000
v -1.000000 0.150000 0.300000
v -1.000000 0.150000 -0.300000
v -1.000000 0.250000 0.300000
v -1.750000 0.550000 0.300000
v -1.250000 0.250000 0.300000
v -1.250000 0.350000 0.300000
v -1.500000 0.350000 0.300000
v -1.500000 0.450000 0.300000
v -1.750000 0.450000 0.300000
v -1.750000 0.550000 -0.300000
v -1.000000 0.250000 -0.300000
v -1.750000 0.450000 -0.300000
v -1.500000 0.450000 -0.300000
v -1.500000 0.350000 -0.300000
v -1.250000 0.350000 -0.300000
v -1.250000 0.250000 -0.300000
v -1.757718 0.550000 -0.300000
v -1.757718 0.550000 0.300000
v -1.757718 0.550000 0.149984
v -1.757718 0.368555 -0.027832
v -1.007233 0.150000 0.300000
v -1.757718 0.347496 0.300000
v -1.757718 0.347496 -0.300000
v -1.007233 0.150000 -0.300000
v -0.997233 0.150000 0.500000
v -1.757233 0.550000 0.500000
v -0.997233 0.150000 0.300000
v -1.757233 0.550000 0.300000
v -0.997233 0.350000 0.500000
v -1.757233 0.350000 0.500000
v -1.757233 0.350000 0.300000
v -0.997233 0.350000 0.300000
v -0.997233 0.350000 0.500000
v -1.757233 0.550000 0.500000
v -1.757233 0.550000 0.300000
v -0.997233 0.350000 0.300000
v -1.757233 0.350000 0.500000
v -0.997233 0.150000 0.500000
v -0.997233 0.150000 0.300000
v -1.757233 0.350000 0.300000
vn -0.0000 1.0000 -0.0000
vn -1.0000 -0.0000 -0.0000
vn -0.0000 -0.0000 1.0000
vn -0.0000 -0.0000 -1.0000
vn 1.0000 -0.0000 -0.0000
vn 0.2545 0.9671 -0.0000
vn -0.2545 -0.9671 -0.0000
vn -0.0000 -1.0000 -0.0000
vt 0.625000 0.500000
vt 0.875000 0.500000
vt 1.746272 -1.510103
vt 3.240984 -1.510103
vt 3.240984 -0.314735
vt 1.746272 -0.314735
vt 1.787419 -5.149676
vt 3.199838 -2.324838
vt 1.787419 -2.324838
vt 0.375000 3.324838
vt 1.787419 0.500000
vt 1.787419 3.324838
vt 3.199838 0.500000
vt 0.709554 3.993946
vt 1.452865 3.993946
vt 1.452865 5.480568
vt 0.709554 5.480568
vt 0.125000 0.750000
vt 0.375000 0.750000
vt 0.500000 0.250000
vt 0.500000 0.500000
vt 4.212308 3.999587
vt 4.212308 5.474927
vt 0.774949 5.474927
vt 0.774949 3.999587
vt 0.500000 0.750000
vt 0.500000 1.000000
vt -0.528417 3.172135
vt -1.546421 3.172135
vt -1.546421 0.652702
vt -0.528417 0.652702
vt 0.375000 -5.149676
vt 0.375000 0.751808
vt 0.437500 0.750000
vt 0.437500 0.812500
vt 0.500000 0.812500
vt 0.500000 0.875000
vt 0.562500 0.875000
vt 0.562500 0.937500
vt 0.625000 0.937500
vt 0.625000 0.939430
vt 0.498435 0.939430
vt 0.625000 0.312500
vt 0.562500 0.312500
vt 0.562500 0.375000
vt 0.500000 0.375000
vt 0.500000 0.437500
vt 0.437500 0.437500
vt 0.437500 0.500000
vt 0.375000 0.500000
vt 0.375000 0.498192
vt 0.498435 0.310570
vt 0.625000 0.310570
vt 0.373192 0.500000
vt 0.373192 0.750000
vt -1.356804 -0.365902
vt -0.861353 -0.365902
vt -0.861353 1.615902
vt -1.356804 1.615902
vt 1.120451 0.625000
vt 3.102255 0.625000
vt 2.111353 -0.365902
vt 2.111353 1.615902
vt 1.615902 1.615902
vt 1.615902 -0.365902
vt 0.625000 1.615902
vt 0.625000 -0.365902
vt -0.365902 1.615902
vt -0.365902 -0.365902
vt 2.126649 1.120399
vt 2.126649 1.615902
vt 2.126649 -0.365902
vt -1.043537 0.606946
vt 0.148727 0.606944
vt 0.148725 -0.294317
vt -0.919553 -1.362597
vt 0.148725 -2.997718
vt -1.043538 -2.997718
vt 2.154610 2.710818
vt -0.752344 2.710820
vt -0.752344 4.409170
vt 2.154609 4.409168
vt 0.802349 -0.747072
vt 2.196253 -0.747072
vt 2.196253 0.779253
vt 0.802349 0.779253
vt 1.218284 -3.274031
vt 2.818174 -0.785674
vt 1.218284 -0.785674
vt -1.029879 2.154879
vt 0.500000 -0.904879
vt 0.500000 2.154879
vt 2.029879 -0.904879
vt 0.375000 2.186568
vt 1.218284 2.186568
vt 1.218284 3.873136
vt 0.375000 3.873136
vt 2.109034 0.860901
vt 2.109034 1.948804
vt -0.985431 1.948804
vt -0.985431 0.860901
vt 0.224684 2.791294
vt -1.161252 2.791294
vt -1.161252 -0.104726
vt 0.224684 -0.104726
vt -0.381606 -3.274031
s 0
usemtl Floor
f 4/1/1 2/2/1 10/2/1 11/1/1
f 6/3/2 2/4/2 4/5/2 7/6/2
f 5/7/3 9/7/3 10/8/3 2/8/3 6/9/3
f 15/10/4 16/11/4 7/11/4 8/12/4 3/10/4
f 7/11/4 4/13/4 11/13/4 12/12/4 8/12/4
f 3/14/5 8/15/5 5/16/5 1/17/5
f 14/18/1 15/19/1 3/19/1 1/18/1
f 13/20/1 6/20/1 7/21/1 16/21/1
f 11/22/6 10/23/6 9/24/6 12/25/6
f 8/26/1 12/26/1 9/27/1 5/27/1
f 15/28/7 14/29/7 13/30/7 16/31/7
f 1/32/3 5/7/3 6/9/3 13/9/3 14/32/3
f 38/73/2 34/74/2 35/75/2 36/76/2 33/77/2 39/78/2
f 33/77/2 36/76/2 35/75/2
f 39/79/7 40/80/7 37/81/7 38/82/7
f 44/1/1 42/2/1 50/2/1 51/1/1
f 46/83/2 42/84/2 44/85/2 47/86/2
f 45/87/3 49/87/3 50/88/3 42/88/3 46/89/3
f 55/90/4 56/91/4 47/91/4 48/92/4 43/90/4
f 47/91/4 44/93/4 51/93/4 52/92/4 48/92/4
f 43/94/5 48/95/5 45/96/5 41/97/5
f 54/18/1 55/19/1 43/19/1 41/18/1
f 53/20/1 46/20/1 47/21/1 56/21/1
f 51/98/6 50/99/6 49/100/6 52/101/6
f 48/26/1 52/26/1 49/27/1 45/27/1
f 55/102/7 54/103/7 53/104/7 56/105/7
f 41/106/3 45/87/3 46/89/3 53/89/3 54/106/3
usemtl Stairs
f 37/33/3 17/19/3 19/34/3 21/35/3 22/36/3 23/37/3 24/38/3 25/39/3 20/40/3 34/41/3 38/42/3
f 26/43/4 28/44/4 29/45/4 30/46/4 31/47/4 32/48/4 27/49/4 18/50/4 40/51/4 39/52/4 33/53/4
f 40/54/8 18/50/8 17/19/8 37/55/8
f 18/56/5 27/57/5 19/58/5 17/59/5
f 26/60/5 20/61/5 25/61/5 28/60/5
f 28/62/1 25/63/1 24/64/1 29/65/1
f 29/65/5 24/64/5 23/66/5 30/67/5
f 30/67/1 23/66/1 22/68/1 31/69/1
f 31/69/5 22/68/5 21/58/5 32/57/5
f 32/57/1 21/58/1 19/58/1 27/57/1
f 35/70/1 34/71/1 20/63/1 26/62/1 33/72/1
