# Blender 4.3.2
# www.blender.org
mtllib central_platform.mtl
o Cube
v -1.000000 0.150000 -1.000000
v -1.000000 -0.150000 -1.000000
v -1.000000 0.150000 1.000000
v -1.000000 -0.150000 1.000000
v 1.000000 0.150000 -0.499893
v 0.499893 0.150000 -1.000000
v 0.499893 -0.150000 -1.000000
v 1.000000 -0.150000 -0.499893
v 0.500000 0.150000 1.000000
v 1.000000 0.150000 0.500000
v 1.000000 -0.150000 0.500000
v 0.500000 -0.150000 1.000000
vn -0.0000 1.0000 -0.0000
vn -1.0000 -0.0000 -0.0000
vn -0.0000 -1.0000 -0.0000
vn -0.0000 -0.0000 1.0000
vn 0.7071 -0.0000 -0.7071
vn -0.0000 -0.0000 -1.0000
vn 0.7071 -0.0000 0.7071
vn 1.0000 -0.0000 -0.0000
vt 3.344452 1.922530
vt 4.766983 0.500000
vt 9.033360 0.500000
vt 9.033360 6.188906
vt 4.766680 6.188906
vt 3.344452 4.766680
vt -0.897437 -2.881889
vt 1.818692 -2.881889
vt 1.818692 3.115399
vt -0.897437 3.115399
vt -8.033360 0.500000
vt -3.766984 0.500000
vt -2.344453 1.922530
vt -2.344453 4.766680
vt -3.766680 6.188906
vt -8.033360 6.188906
vt -0.512012 2.341047
vt 1.512010 2.341047
vt 1.512010 5.612773
vt -0.512012 5.612773
vt 1.477092 -0.889072
vt -0.477091 -0.889072
vt -0.477091 -3.602940
vt 1.477092 -3.602940
vt -0.512012 -1.000768
vt 1.512010 -1.000768
vt 1.512010 2.270725
vt -0.512012 2.270725
vt 1.477092 4.537214
vt -0.477091 4.537214
vt -0.477091 1.823925
vt 1.477092 1.823925
s 0
usemtl Floor
f 5/1/1 6/2/1 1/3/1 3/4/1 9/5/1 10/6/1
f 4/7/2 3/8/2 1/9/2 2/10/2
f 2/11/3 7/12/3 8/13/3 11/14/3 12/15/3 4/16/3
f 12/17/4 9/18/4 3/19/4 4/20/4
f 5/21/5 8/22/5 7/23/5 6/24/5
f 2/25/6 1/26/6 6/27/6 7/28/6
f 9/29/7 12/30/7 11/31/7 10/32/7
f 8/22/8 5/21/8 10/32/8 11/31/8
o Plane
v -1.250000 -0.155000 1.000000
v -1.250000 -0.105000 1.000000
v -1.250000 -0.155000 -1.000000
v -1.250000 -0.105000 -1.000000
v -1.000000 -0.155000 1.000000
v -1.000000 -0.105000 1.000000
v -1.000000 -0.155000 -1.000000
v -1.000000 -0.105000 -1.000000
vn -1.0000 -0.0000 -0.0000
vn -0.0000 -0.0000 -1.0000
vn 1.0000 -0.0000 -0.0000
vn -0.0000 -0.0000 1.0000
vn -0.0000 -1.0000 -0.0000
vn -0.0000 1.0000 -0.0000
vt 0.268965 -6.995946
vt 0.731035 -6.995946
vt 0.731035 0.684420
vt 0.268965 0.684420
vt 0.099551 -1.119036
vt 0.900449 -1.119036
vt 0.900449 -0.318139
vt 0.099551 -0.318139
vt -0.718588 0.500000
vt 1.718588 0.500000
vt 1.718588 2.937175
vt -0.718588 2.937175
vt 0.153634 3.809397
vt 0.846366 3.809397
vt 0.846366 4.502129
vt 0.153634 4.502129
vt -3.155763 0.500000
vt -3.155763 2.937175
vt 1.831782 -1.248316
vt 4.042568 -1.248316
vt 4.042568 4.685492
vt 1.831782 4.685492
s 0
usemtl Floor
f 13/33/9 14/34/9 16/35/9 15/36/9
f 15/37/10 16/38/10 20/39/10 19/40/10
f 19/41/11 20/42/11 18/43/11 17/44/11
f 17/45/12 18/46/12 14/47/12 13/48/12
f 15/49/13 19/41/13 17/44/13 13/50/13
f 20/51/14 16/52/14 14/53/14 18/54/14
