# Blender 4.3.2
# www.blender.org
mtllib final_platform.mtl
o Second_floor
v -1.760000 0.550000 -0.499893
v -2.260107 0.550000 -1.000000
v -2.260107 0.350000 -1.000000
v -1.760000 0.350000 -0.499893
v -2.260000 0.550000 1.000000
v -1.760000 0.550000 0.500000
v -1.760000 0.350000 0.500000
v -2.260000 0.350000 1.000000
v -3.760000 0.550000 0.500000
v -3.260000 0.550000 1.000000
v -3.260000 0.350000 1.000000
v -3.760000 0.350000 0.500000
v -3.260000 0.550000 -1.000000
v -3.760000 0.550000 -0.500000
v -3.760000 0.350000 -0.500000
v -3.260000 0.350000 -1.000000
vn -1.0000 -0.0000 -0.0000
vn -0.0000 -1.0000 -0.0000
vn 0.7071 -0.0000 -0.7071
vn -0.0000 1.0000 -0.0000
vn 0.7071 -0.0000 0.7071
vn 1.0000 -0.0000 -0.0000
vn -0.7071 -0.0000 0.7071
vn -0.0000 -0.0000 1.0000
vn -0.7071 -0.0000 -0.7071
vn -0.0000 -0.0000 -1.0000
vt -2.859622 -5.139388
vt 3.670306 -5.139388
vt 3.670306 2.069743
vt -2.859621 2.069742
vt -20.015308 2.805767
vt -16.596090 -0.613451
vt -9.758387 -0.613451
vt -6.338436 2.806497
vt -6.338436 9.644203
vt -9.757654 13.063420
vt -16.596090 13.063420
vt -20.015308 9.644202
vt 2.849055 -3.952962
vt -1.849055 -3.952962
vt -1.849055 -10.477454
vt 2.849055 -10.477454
vt 7.338434 2.806497
vt 10.758383 -0.613451
vt 17.596088 -0.613451
vt 21.015308 2.805767
vt 21.015308 9.644202
vt 17.596088 13.063420
vt 10.757654 13.063420
vt 7.338434 9.644203
vt 2.849055 9.092538
vt -1.849055 9.092538
vt -1.849055 2.569438
vt 2.849055 2.569438
vt -0.477091 -0.889072
vt 1.477092 -0.889072
vt 1.477092 1.823925
vt -0.477091 1.823925
vt -2.859622 -8.743953
vt 3.670306 -8.743953
vt -1.933007 3.812665
vt 2.933005 3.812665
vt 2.933005 9.056437
vt -1.933007 9.056436
vt 3.670306 5.674308
vt -2.859622 5.674308
vt -1.933007 -1.599608
vt 2.933005 -1.599608
vt 2.933005 3.643601
vt -1.933007 3.643601
s 0
usemtl Green_Floor
f 12/1/1 9/2/1 14/3/1 15/4/1
f 15/5/2 16/6/2 3/7/2 4/8/2 7/9/2 8/10/2 11/11/2 12/12/2
f 1/13/3 4/14/3 3/15/3 2/16/3
f 1/17/4 2/18/4 13/19/4 14/20/4 9/21/4 10/22/4 5/23/4 6/24/4
f 5/25/5 8/26/5 7/27/5 6/28/5
f 4/29/6 1/30/6 6/31/6 7/32/6
f 11/33/7 10/34/7 9/2/7 12/1/7
f 8/35/8 5/36/8 10/37/8 11/38/8
f 13/39/9 16/40/9 15/4/9 14/3/9
f 16/41/10 13/42/10 2/43/10 3/44/10
o Third_floor
v -2.160000 0.660000 -0.299936
v -2.460064 0.660000 -0.600000
v -2.460064 0.540000 -0.600000
v -2.160000 0.540000 -0.299936
v -2.460000 0.660000 0.600000
v -2.160000 0.660000 0.300000
v -2.160000 0.540000 0.300000
v -2.460000 0.540000 0.600000
v -3.360000 0.660000 0.300000
v -3.060000 0.660000 0.600000
v -3.060000 0.540000 0.600000
v -3.360000 0.540000 0.300000
v -3.060000 0.660000 -0.600000
v -3.360000 0.660000 -0.300000
v -3.360000 0.540000 -0.300000
v -3.060000 0.540000 -0.600000
vn -1.0000 -0.0000 -0.0000
vn -0.0000 -1.0000 -0.0000
vn 0.7071 -0.0000 -0.7071
vn -0.0000 1.0000 -0.0000
vn 0.7071 -0.0000 0.7071
vn 1.0000 -0.0000 -0.0000
vn -0.7071 -0.0000 0.7071
vn -0.0000 -0.0000 1.0000
vn -0.7071 -0.0000 -0.7071
vn -0.0000 -0.0000 -1.0000
vt 0.018701 -0.512790
vt 0.902554 -0.512790
vt 0.902554 0.746300
vt 0.018701 0.746299
vt -8.033360 1.922226
vt -6.611133 0.500000
vt -3.766984 0.500000
vt -2.344453 1.922530
vt -2.344453 4.766680
vt -3.766680 6.188906
vt -6.611133 6.188906
vt -8.033360 4.766679
vt 1.197514 -0.501017
vt -0.197514 -0.501017
vt -0.197514 -2.438361
vt 1.197514 -2.438361
vt 3.854455 2.177477
vt 5.021930 1.010003
vt 7.356131 1.010003
vt 8.523356 2.177228
vt 8.523356 4.511678
vt 7.356131 5.678903
vt 5.021681 5.678903
vt 3.854455 4.511678
vt 1.197514 3.372634
vt -0.197514 3.372634
vt -0.197514 1.435705
vt 1.197514 1.435705
vt 0.018701 -1.142335
vt 0.902554 -1.142335
vt -0.512012 2.341047
vt 1.512010 2.341047
vt 1.512010 4.522198
vt -0.512012 4.522197
vt 0.902554 1.375844
vt 0.018701 1.375844
vt -0.512012 0.089807
vt 1.512010 0.089807
vt 1.512010 2.270725
vt -0.512012 2.270725
s 0
usemtl Floor
f 28/45/11 25/46/11 30/47/11 31/48/11
f 31/49/12 32/50/12 19/51/12 20/52/12 23/53/12 24/54/12 27/55/12 28/56/12
f 17/57/13 20/58/13 19/59/13 18/60/13
f 17/61/14 18/62/14 29/63/14 30/64/14 25/65/14 26/66/14 21/67/14 22/68/14
f 21/69/15 24/70/15 23/71/15 22/72/15
f 20/58/16 17/57/16 22/72/16 23/71/16
f 27/73/17 26/74/17 25/46/17 28/45/17
f 24/75/18 21/76/18 26/77/18 27/78/18
f 29/79/19 32/80/19 31/48/19 30/47/19
f 32/81/20 29/82/20 18/83/20 19/84/20
o Fourth_floor.001
v -2.360000 0.780000 -0.199957
v -2.560043 0.780000 -0.400000
v -2.560043 0.660000 -0.400000
v -2.360000 0.660000 -0.199957
v -2.560000 0.780000 0.400000
v -2.360000 0.780000 0.200000
v -2.360000 0.660000 0.200000
v -2.560000 0.660000 0.400000
v -3.160000 0.780000 0.200000
v -2.960000 0.780000 0.400000
v -2.960000 0.660000 0.400000
v -3.160000 0.660000 0.200000
v -2.960000 0.780000 -0.400000
v -3.160000 0.780000 -0.200000
v -3.160000 0.660000 -0.200000
v -2.960000 0.660000 -0.400000
vn -1.0000 -0.0000 -0.0000
vn -0.0000 -1.0000 -0.0000
vn 0.7071 -0.0000 -0.7071
vn -0.0000 1.0000 -0.0000
vn 0.7071 -0.0000 0.7071
vn 1.0000 -0.0000 -0.0000
vn -0.7071 -0.0000 0.7071
vn -0.0000 -0.0000 1.0000
vn -0.7071 -0.0000 -0.7071
vn -0.0000 -0.0000 -1.0000
vt -0.182353 -0.593104
vt 1.103607 -0.593104
vt 1.103607 0.826614
vt -0.182353 0.826613
vt -8.033360 1.922226
vt -6.611133 0.500000
vt -3.766984 0.500000
vt -2.344453 1.922530
vt -2.344453 4.766680
vt -3.766680 6.188906
vt -6.611133 6.188906
vt -8.033360 4.766679
vt 1.125869 -0.401573
vt -0.125869 -0.401573
vt -0.125869 -2.139923
vt 1.125869 -2.139923
vt 3.854455 2.177477
vt 5.021930 1.010003
vt 7.356131 1.010003
vt 8.523356 2.177228
vt 8.523356 4.511678
vt 7.356131 5.678903
vt 5.021681 5.678903
vt 3.854455 4.511678
vt 1.125869 3.074196
vt -0.125869 3.074196
vt -0.125869 1.336218
vt 1.125869 1.336218
vt -0.182353 -1.302963
vt 1.103607 -1.302963
vt -0.148237 1.667457
vt 1.148236 1.667457
vt 1.148236 3.064578
vt -0.148237 3.064578
vt 1.103607 1.536472
vt -0.182353 1.536472
vt -0.512012 0.089807
vt 1.512010 0.089807
vt 1.512010 2.270725
vt -0.512012 2.270725
s 0
usemtl Floor
f 44/85/21 41/86/21 46/87/21 47/88/21
f 47/89/22 48/90/22 35/91/22 36/92/22 39/93/22 40/94/22 43/95/22 44/96/22
f 33/97/23 36/98/23 35/99/23 34/100/23
f 33/101/24 34/102/24 45/103/24 46/104/24 41/105/24 42/106/24 37/107/24 38/108/24
f 37/109/25 40/110/25 39/111/25 38/112/25
f 36/98/26 33/97/26 38/112/26 39/111/26
f 43/113/27 42/114/27 41/86/27 44/85/27
f 40/115/28 37/116/28 42/117/28 43/118/28
f 45/119/29 48/120/29 47/88/29 46/87/29
f 48/121/30 45/122/30 34/123/30 35/124/30
