# Blender 4.3.2
# www.blender.org
mtllib first_platform.mtl
o Start
v 1.000000 -0.450000 0.500000
v 1.000000 -0.150000 0.500000
v 1.000000 -0.450000 -0.500000
v 1.000000 -0.150000 -0.500000
v 3.000000 -0.450000 0.500000
v 3.000000 -0.150000 0.500000
v 3.000000 -0.450000 -0.500000
v 3.000000 -0.150000 -0.500000
v 3.000000 -0.450000 -0.495175
v 3.000000 -0.150000 -0.495175
v 2.000000 -0.450000 -0.495175
v 2.000000 -0.150000 -0.495175
v 3.000000 -0.450000 -2.495175
v 3.000000 -0.150000 -2.495175
v 2.000000 -0.450000 -2.495175
v 2.000000 -0.150000 -2.495175
vn -1.0000 -0.0000 -0.0000
vn -0.0000 -0.0000 -1.0000
vn 1.0000 -0.0000 -0.0000
vn -0.0000 -0.0000 1.0000
vn -0.0000 -1.0000 -0.0000
vn -0.0000 1.0000 -0.0000
vt 1.461255 -0.006411
vt 1.461255 1.004489
vt 0.149020 1.004489
vt 0.149020 -0.006411
vt 1.764551 -0.013213
vt 1.764551 0.999448
vt -0.695649 0.999448
vt -0.695649 -0.013213
vt 0.477695 0.015869
vt 0.477695 1.017582
vt -0.836048 1.017582
vt -0.836048 0.015869
vt 1.448760 0.004945
vt 1.448760 0.996977
vt -0.576721 0.996977
vt -0.576721 0.004945
vt -1.402641 -0.009214
vt -0.134214 -0.009214
vt -0.134214 1.259214
vt -1.402641 1.259214
vt -0.411158 1.134114
vt -0.411158 0.548984
vt 0.857270 0.548984
vt 0.857270 1.134114
vt 0.375000 0.000000
vt 0.625000 0.000000
vt 0.625000 0.250000
vt 0.375000 0.250000
vt 1.439032 0.005031
vt 1.439032 0.981204
vt -0.439031 0.981204
vt -0.439031 0.005031
vt 1.128126 -0.039450
vt 1.128127 1.013842
vt -0.147813 1.013842
vt -0.147813 -0.039449
vt 1.511158 0.025086
vt 1.511158 0.996522
vt -0.540687 0.996522
vt -0.540687 0.025086
vt 0.053467 0.954077
vt 0.053467 -0.314351
vt 0.589507 -0.314351
vt 0.589507 0.954077
s 0
usemtl Goomba_texture
f 1/1/1 2/2/1 4/3/1 3/4/1
f 3/5/2 4/6/2 8/7/2 7/8/2
f 7/9/3 8/10/3 6/11/3 5/12/3
f 5/13/4 6/14/4 2/15/4 1/16/4
f 9/25/4 10/26/4 12/27/4 11/28/4
f 11/29/1 12/30/1 16/31/1 15/32/1
f 15/33/2 16/34/2 14/35/2 13/36/2
f 13/37/3 14/38/3 10/39/3 9/40/3
usemtl Start_Floor
f 3/17/5 7/18/5 5/19/5 1/20/5
f 8/21/6 4/22/6 2/23/6 6/24/6
f 11/17/5 15/18/5 13/19/5 9/20/5
f 16/41/6 12/42/6 10/43/6 14/44/6
