# Blender 4.3.2
# www.blender.org
mtllib tube.mtl
o Cylinder
v -2.750000 0.780000 -0.200000
v -2.750000 1.020000 -0.156324
v -2.710982 0.780000 -0.196157
v -2.719503 1.020000 -0.153320
v -2.673463 0.780000 -0.184776
v -2.690177 1.020000 -0.144424
v -2.638886 0.780000 -0.166294
v -2.663151 1.020000 -0.129979
v -2.608579 0.780000 -0.141421
v -2.639462 1.020000 -0.110538
v -2.583706 0.780000 -0.111114
v -2.620021 1.020000 -0.086849
v -2.565224 0.780000 -0.076537
v -2.605576 1.020000 -0.059823
v -2.553843 0.780000 -0.039018
v -2.596680 1.020000 -0.030497
v -2.550000 0.780000 0.000000
v -2.593676 1.020000 0.000000
v -2.553843 0.780000 0.039018
v -2.596680 1.020000 0.030497
v -2.565224 0.780000 0.076537
v -2.605576 1.020000 0.059823
v -2.583706 0.780000 0.111114
v -2.620021 1.020000 0.086849
v -2.608579 0.780000 0.141421
v -2.639462 1.020000 0.110538
v -2.638886 0.780000 0.166294
v -2.663151 1.020000 0.129979
v -2.673463 0.780000 0.184776
v -2.690177 1.020000 0.144424
v -2.710982 0.780000 0.196157
v -2.719503 1.020000 0.153320
v -2.750000 0.780000 0.200000
v -2.750000 1.020000 0.156324
v -2.789018 0.780000 0.196157
v -2.780497 1.020000 0.153320
v -2.826537 0.780000 0.184776
v -2.809823 1.020000 0.144424
v -2.861114 0.780000 0.166294
v -2.836849 1.020000 0.129979
v -2.891421 0.780000 0.141421
v -2.860538 1.020000 0.110538
v -2.916294 0.780000 0.111114
v -2.879979 1.020000 0.086849
v -2.934776 0.780000 0.076537
v -2.894424 1.020000 0.059823
v -2.946157 0.780000 0.039018
v -2.903320 1.020000 0.030497
v -2.950000 0.780000 0.000000
v -2.906324 1.020000 0.000000
v -2.946157 0.780000 -0.039018
v -2.903320 1.020000 -0.030497
v -2.934776 0.780000 -0.076537
v -2.894424 1.020000 -0.059823
v -2.916294 0.780000 -0.111114
v -2.879979 1.020000 -0.086849
v -2.891421 0.780000 -0.141421
v -2.860538 1.020000 -0.110538
v -2.861114 0.780000 -0.166294
v -2.836849 1.020000 -0.129979
v -2.826537 0.780000 -0.184776
v -2.809823 1.020000 -0.144424
v -2.789018 0.780000 -0.196157
v -2.780497 1.020000 -0.153320
v -2.710982 1.020000 -0.196157
v -2.750000 1.020000 -0.200000
v -2.673463 1.020000 -0.184776
v -2.638886 1.020000 -0.166294
v -2.608579 1.020000 -0.141421
v -2.583706 1.020000 -0.111114
v -2.565224 1.020000 -0.076537
v -2.553843 1.020000 -0.039018
v -2.550000 1.020000 0.000000
v -2.553843 1.020000 0.039018
v -2.565224 1.020000 0.076537
v -2.583706 1.020000 0.111114
v -2.608579 1.020000 0.141421
v -2.638886 1.020000 0.166294
v -2.673463 1.020000 0.184776
v -2.710982 1.020000 0.196157
v -2.750000 1.020000 0.200000
v -2.789018 1.020000 0.196157
v -2.826537 1.020000 0.184776
v -2.861114 1.020000 0.166294
v -2.891421 1.020000 0.141421
v -2.916294 1.020000 0.111114
v -2.934776 1.020000 0.076537
v -2.946157 1.020000 0.039018
v -2.950000 1.020000 0.000000
v -2.946157 1.020000 -0.039018
v -2.934776 1.020000 -0.076537
v -2.916294 1.020000 -0.111114
v -2.891421 1.020000 -0.141421
v -2.861114 1.020000 -0.166294
v -2.826537 1.020000 -0.184776
v -2.789018 1.020000 -0.196157
v -2.719503 0.947774 -0.153320
v -2.750000 0.947774 -0.156324
v -2.690177 0.947774 -0.144424
v -2.663151 0.947774 -0.129979
v -2.639462 0.947774 -0.110538
v -2.620021 0.947774 -0.086849
v -2.605576 0.947774 -0.059823
v -2.596680 0.947774 -0.030497
v -2.593676 0.947774 0.000000
v -2.596680 0.947774 0.030497
v -2.605576 0.947774 0.059823
v -2.620021 0.947774 0.086849
v -2.639462 0.947774 0.110538
v -2.663151 0.947774 0.129979
v -2.690177 0.947774 0.144424
v -2.719503 0.947774 0.153320
v -2.750000 0.947774 0.156324
v -2.780497 0.947774 0.153320
v -2.809823 0.947774 0.144424
v -2.836849 0.947774 0.129979
v -2.860538 0.947774 0.110538
v -2.879979 0.947774 0.086849
v -2.894424 0.947774 0.059823
v -2.903320 0.947774 0.030497
v -2.906324 0.947774 0.000000
v -2.903320 0.947774 -0.030497
v -2.894424 0.947774 -0.059823
v -2.879979 0.947774 -0.086849
v -2.860538 0.947774 -0.110538
v -2.836849 0.947774 -0.129979
v -2.809823 0.947774 -0.144424
v -2.780497 0.947774 -0.153320
vn 0.0980 -0.0000 -0.9952
vn 0.2903 -0.0000 -0.9569
vn 0.4714 -0.0000 -0.8819
vn 0.6344 -0.0000 -0.7730
vn 0.7730 -0.0000 -0.6344
vn 0.8819 -0.0000 -0.4714
vn 0.9569 -0.0000 -0.2903
vn 0.9952 -0.0000 -0.0980
vn 0.9952 -0.0000 0.0980
vn 0.9569 -0.0000 0.2903
vn 0.8819 -0.0000 0.4714
vn 0.7730 -0.0000 0.6344
vn 0.6344 -0.0000 0.7730
vn 0.4714 -0.0000 0.8819
vn 0.2903 -0.0000 0.9569
vn 0.0980 -0.0000 0.9952
vn -0.0980 -0.0000 0.9952
vn -0.2903 -0.0000 0.9569
vn -0.4714 -0.0000 0.8819
vn -0.6344 -0.0000 0.7730
vn -0.7730 -0.0000 0.6344
vn -0.8819 -0.0000 0.4714
vn -0.9569 -0.0000 0.2903
vn -0.9952 -0.0000 0.0980
vn -0.9952 -0.0000 -0.0980
vn -0.9569 -0.0000 -0.2903
vn -0.8819 -0.0000 -0.4714
vn -0.7730 -0.0000 -0.6344
vn -0.6344 -0.0000 -0.7730
vn -0.4714 -0.0000 -0.8819
vn -0.2903 -0.0000 -0.9569
vn -0.0980 -0.0000 -0.9952
vn -0.0000 -1.0000 -0.0000
vn -0.0000 1.0000 -0.0000
vt 1.377631 0.119243
vt 1.377631 0.996874
vt 1.322779 0.996874
vt 1.322779 0.119243
vt 1.267927 0.996874
vt 1.267927 0.119243
vt 1.213075 0.996874
vt 1.213075 0.119243
vt 1.158223 0.996874
vt 1.158223 0.119243
vt 1.103371 0.996874
vt 1.103371 0.119243
vt 1.048519 0.996874
vt 1.048519 0.119243
vt 0.993667 0.996874
vt 0.993667 0.119243
vt 0.938815 0.996874
vt 0.938815 0.119243
vt 0.883964 0.996874
vt 0.883964 0.119243
vt 0.829112 0.996874
vt 0.829112 0.119243
vt 0.774260 0.996874
vt 0.774260 0.119243
vt 0.719408 0.996874
vt 0.719408 0.119243
vt 0.664556 0.996874
vt 0.664556 0.119243
vt 0.609704 0.996874
vt 0.609704 0.119243
vt 0.554852 0.996874
vt 0.554852 0.119243
vt 0.500000 0.996874
vt 0.500000 0.119243
vt 0.445148 0.996874
vt 0.445148 0.119243
vt 0.390296 0.996874
vt 0.390296 0.119243
vt 0.335444 0.996874
vt 0.335444 0.119243
vt 0.280592 0.996874
vt 0.280592 0.119243
vt 0.225740 0.996874
vt 0.225740 0.119243
vt 0.170888 0.996874
vt 0.170888 0.119243
vt 0.116036 0.996874
vt 0.116036 0.119243
vt 0.061185 0.996874
vt 0.061185 0.119243
vt 0.006333 0.996874
vt 0.006333 0.119243
vt -0.048519 0.996874
vt -0.048519 0.119243
vt -0.103371 0.996874
vt -0.103371 0.119243
vt -0.158223 0.996874
vt -0.158223 0.119243
vt -0.213075 0.996874
vt -0.213075 0.119243
vt -0.267927 0.996874
vt -0.267927 0.119243
vt 0.625845 0.685392
vt 0.593789 0.689675
vt -0.322779 0.996874
vt -0.322779 0.119243
vt -0.377631 0.996874
vt -0.377631 0.119243
vt 0.750000 0.490000
vt 0.796822 0.485388
vt 0.841844 0.471731
vt 0.883337 0.449553
vt 0.919706 0.419706
vt 0.949553 0.383337
vt 0.971731 0.341844
vt 0.985388 0.296822
vt 0.990000 0.250000
vt 0.985388 0.203178
vt 0.971731 0.158156
vt 0.949553 0.116663
vt 0.919706 0.080294
vt 0.883337 0.050447
vt 0.841844 0.028269
vt 0.796822 0.014612
vt 0.750000 0.010000
vt 0.703178 0.014612
vt 0.658156 0.028269
vt 0.616663 0.050447
vt 0.580294 0.080294
vt 0.550447 0.116663
vt 0.528269 0.158156
vt 0.514612 0.203178
vt 0.510000 0.250000
vt 0.514612 0.296822
vt 0.528269 0.341844
vt 0.550447 0.383337
vt 0.580294 0.419706
vt 0.616663 0.449553
vt 0.658156 0.471731
vt 0.703178 0.485388
vt 0.250000 0.437589
vt 0.286597 0.433984
vt 0.296822 0.485388
vt 0.250000 0.490000
vt 0.321787 0.423309
vt 0.341844 0.471731
vt 0.354219 0.405974
vt 0.383337 0.449553
vt 0.382645 0.382645
vt 0.419706 0.419706
vt 0.405974 0.354219
vt 0.449553 0.383337
vt 0.423309 0.321787
vt 0.471731 0.341844
vt 0.433984 0.286597
vt 0.485388 0.296822
vt 0.437589 0.250000
vt 0.490000 0.250000
vt 0.433984 0.213403
vt 0.485388 0.203178
vt 0.423309 0.178213
vt 0.471731 0.158156
vt 0.405974 0.145781
vt 0.449553 0.116663
vt 0.382645 0.117355
vt 0.419706 0.080294
vt 0.354219 0.094026
vt 0.383337 0.050447
vt 0.321787 0.076691
vt 0.341844 0.028269
vt 0.286597 0.066016
vt 0.296822 0.014612
vt 0.250000 0.062411
vt 0.250000 0.010000
vt 0.213403 0.066016
vt 0.203178 0.014612
vt 0.178213 0.076691
vt 0.158156 0.028269
vt 0.145781 0.094026
vt 0.116663 0.050447
vt 0.117355 0.117355
vt 0.080294 0.080294
vt 0.094026 0.145781
vt 0.050447 0.116663
vt 0.076691 0.178213
vt 0.028269 0.158156
vt 0.066016 0.213403
vt 0.014612 0.203178
vt 0.062411 0.250000
vt 0.010000 0.250000
vt 0.066016 0.286597
vt 0.014612 0.296822
vt 0.076691 0.321787
vt 0.028269 0.341844
vt 0.094026 0.354219
vt 0.050447 0.383337
vt 0.117355 0.382645
vt 0.080294 0.419706
vt 0.145781 0.405974
vt 0.116663 0.449553
vt 0.178213 0.423309
vt 0.158156 0.471731
vt 0.213403 0.433984
vt 0.203178 0.485388
vt 0.351534 0.629112
vt 0.368668 0.621098
vt 0.704686 0.637807
vt 0.708248 0.646850
vt 0.653942 0.679627
vt 0.340983 0.637807
vt 0.694135 0.629112
vt 0.677001 0.672603
vt 0.337421 0.646850
vt 0.677001 0.621098
vt 0.694135 0.664589
vt 0.340983 0.655893
vt 0.653942 0.614073
vt 0.704686 0.655893
vt 0.351534 0.664589
vt 0.625845 0.608309
vt 0.368668 0.672603
vt 0.593789 0.604025
vt 0.391727 0.679627
vt 0.559007 0.601387
vt 0.419824 0.685392
vt 0.522835 0.600497
vt 0.451880 0.689675
vt 0.486662 0.601387
vt 0.486662 0.692313
vt 0.451880 0.604025
vt 0.522835 0.693204
vt 0.419824 0.608309
vt 0.559007 0.692313
vt 0.391727 0.614073
s 0
usemtl Tube
f 1/1/1 66/2/1 65/3/1 3/4/1
f 3/4/2 65/3/2 67/5/2 5/6/2
f 5/6/3 67/5/3 68/7/3 7/8/3
f 7/8/4 68/7/4 69/9/4 9/10/4
f 9/10/5 69/9/5 70/11/5 11/12/5
f 11/12/6 70/11/6 71/13/6 13/14/6
f 13/14/7 71/13/7 72/15/7 15/16/7
f 15/16/8 72/15/8 73/17/8 17/18/8
f 17/18/9 73/17/9 74/19/9 19/20/9
f 19/20/10 74/19/10 75/21/10 21/22/10
f 21/22/11 75/21/11 76/23/11 23/24/11
f 23/24/12 76/23/12 77/25/12 25/26/12
f 25/26/13 77/25/13 78/27/13 27/28/13
f 27/28/14 78/27/14 79/29/14 29/30/14
f 29/30/15 79/29/15 80/31/15 31/32/15
f 31/32/16 80/31/16 81/33/16 33/34/16
f 33/34/17 81/33/17 82/35/17 35/36/17
f 35/36/18 82/35/18 83/37/18 37/38/18
f 37/38/19 83/37/19 84/39/19 39/40/19
f 39/40/20 84/39/20 85/41/20 41/42/20
f 41/42/21 85/41/21 86/43/21 43/44/21
f 43/44/22 86/43/22 87/45/22 45/46/22
f 45/46/23 87/45/23 88/47/23 47/48/23
f 47/48/24 88/47/24 89/49/24 49/50/24
f 49/50/25 89/49/25 90/51/25 51/52/25
f 51/52/26 90/51/26 91/53/26 53/54/26
f 53/54/27 91/53/27 92/55/27 55/56/27
f 55/56/28 92/55/28 93/57/28 57/58/28
f 57/58/29 93/57/29 94/59/29 59/60/29
f 59/60/30 94/59/30 95/61/30 61/62/30
f 56/63/11 54/64/11 123/64/11 124/63/11
f 61/62/31 95/61/31 96/65/31 63/66/31
f 63/66/32 96/65/32 66/67/32 1/68/32
f 1/69/33 3/70/33 5/71/33 7/72/33 9/73/33 11/74/33 13/75/33 15/76/33 17/77/33 19/78/33 21/79/33 23/80/33 25/81/33 27/82/33 29/83/33 31/84/33 33/85/33 35/86/33 37/87/33 39/88/33 41/89/33 43/90/33 45/91/33 47/92/33 49/93/33 51/94/33 53/95/33 55/96/33 57/97/33 59/98/33 61/99/33 63/100/33
f 2/101/34 4/102/34 65/103/34 66/104/34
f 4/102/34 6/105/34 67/106/34 65/103/34
f 6/105/34 8/107/34 68/108/34 67/106/34
f 8/107/34 10/109/34 69/110/34 68/108/34
f 10/109/34 12/111/34 70/112/34 69/110/34
f 12/111/34 14/113/34 71/114/34 70/112/34
f 14/113/34 16/115/34 72/116/34 71/114/34
f 16/115/34 18/117/34 73/118/34 72/116/34
f 18/117/34 20/119/34 74/120/34 73/118/34
f 20/119/34 22/121/34 75/122/34 74/120/34
f 22/121/34 24/123/34 76/124/34 75/122/34
f 24/123/34 26/125/34 77/126/34 76/124/34
f 26/125/34 28/127/34 78/128/34 77/126/34
f 28/127/34 30/129/34 79/130/34 78/128/34
f 30/129/34 32/131/34 80/132/34 79/130/34
f 32/131/34 34/133/34 81/134/34 80/132/34
f 34/133/34 36/135/34 82/136/34 81/134/34
f 36/135/34 38/137/34 83/138/34 82/136/34
f 38/137/34 40/139/34 84/140/34 83/138/34
f 40/139/34 42/141/34 85/142/34 84/140/34
f 42/141/34 44/143/34 86/144/34 85/142/34
f 44/143/34 46/145/34 87/146/34 86/144/34
f 46/145/34 48/147/34 88/148/34 87/146/34
f 48/147/34 50/149/34 89/150/34 88/148/34
f 50/149/34 52/151/34 90/152/34 89/150/34
f 52/151/34 54/153/34 91/154/34 90/152/34
f 54/153/34 56/155/34 92/156/34 91/154/34
f 56/155/34 58/157/34 93/158/34 92/156/34
f 58/157/34 60/159/34 94/160/34 93/158/34
f 60/159/34 62/161/34 95/162/34 94/160/34
f 62/161/34 64/163/34 96/164/34 95/162/34
f 64/163/34 2/101/34 66/104/34 96/164/34
f 30/165/30 28/166/30 110/166/30 111/165/30
f 4/167/17 2/168/17 98/168/17 97/167/17
f 58/169/12 56/63/12 124/63/12 125/169/12
f 32/170/31 30/165/31 111/165/31 112/170/31
f 6/171/18 4/167/18 97/167/18 99/171/18
f 60/172/13 58/169/13 125/169/13 126/172/13
f 34/173/32 32/170/32 112/170/32 113/173/32
f 8/174/19 6/171/19 99/171/19 100/174/19
f 62/175/14 60/172/14 126/172/14 127/175/14
f 36/176/1 34/173/1 113/173/1 114/176/1
f 10/177/20 8/174/20 100/174/20 101/177/20
f 64/178/15 62/175/15 127/175/15 128/178/15
f 38/179/2 36/176/2 114/176/2 115/179/2
f 12/180/21 10/177/21 101/177/21 102/180/21
f 2/168/16 64/178/16 128/178/16 98/168/16
f 40/181/3 38/179/3 115/179/3 116/181/3
f 14/182/22 12/180/22 102/180/22 103/182/22
f 42/183/4 40/181/4 116/181/4 117/183/4
f 16/184/23 14/182/23 103/182/23 104/184/23
f 44/185/5 42/183/5 117/183/5 118/185/5
f 18/186/24 16/184/24 104/184/24 105/186/24
f 46/187/6 44/185/6 118/185/6 119/187/6
f 20/188/25 18/186/25 105/186/25 106/188/25
f 48/189/7 46/187/7 119/187/7 120/189/7
f 22/190/26 20/188/26 106/188/26 107/190/26
f 50/191/8 48/189/8 120/189/8 121/191/8
f 24/192/27 22/190/27 107/190/27 108/192/27
f 52/193/9 50/191/9 121/191/9 122/193/9
f 26/194/28 24/192/28 108/192/28 109/194/28
f 54/64/10 52/193/10 122/193/10 123/64/10
f 28/166/29 26/194/29 109/194/29 110/166/29
usemtl Black
f 97/102/34 98/101/34 128/163/34 127/161/34 126/159/34 125/157/34 124/155/34 123/153/34 122/151/34 121/149/34 120/147/34 119/145/34 118/143/34 117/141/34 116/139/34 115/137/34 114/135/34 113/133/34 112/131/34 111/129/34 110/127/34 109/125/34 108/123/34 107/121/34 106/119/34 105/117/34 104/115/34 103/113/34 102/111/34 101/109/34 100/107/34 99/105/34
