# Blender 4.3.2
# www.blender.org
mtllib back_walls.mtl
o Wall
v 5.330215 -0.005779 10.353853
v 5.338439 11.993841 10.448977
v 5.194397 -0.001053 9.769446
v 5.202621 11.998568 9.864569
v 11.564091 0.001432 8.905151
v 11.572315 12.001053 9.000274
v 11.428273 0.006158 8.320744
v 11.436498 12.005779 8.415867
v 11.927622 -0.007469 8.689503
v 12.001141 11.992151 8.750422
v 11.416075 -0.002743 8.375978
v 11.489594 11.996878 8.436897
v 16.913244 12.002743 0.735991
v 16.401695 12.007469 0.422466
v 16.805370 -0.005552 0.568056
v 16.900229 11.994066 0.557204
v 16.224941 -0.000826 0.719986
v 16.319801 11.998792 0.709133
v 15.286081 0.001209 -5.236399
v 15.380939 12.000828 -5.247252
v 14.705653 0.005934 -5.084470
v 14.800513 12.005553 -5.095323
v 6.712291 -0.057969 -10.168958
v 6.622178 11.940073 -9.971847
v 6.246923 -0.155632 -9.631772
v 6.318782 11.929292 -9.454318
v 15.339287 -0.076258 -5.111829
v 15.249174 11.921783 -4.914713
v 15.035891 -0.087038 -4.594300
v 14.945778 11.911003 -4.397186
v 16.312943 6.000000 -1.499999
v 15.692709 6.000000 -1.499999
v 15.287863 4.500000 -2.999998
v 15.908096 4.500000 -2.999998
v 15.871460 0.000000 -2.999998
v 15.694757 0.000000 -2.999998
v 15.251255 0.003506 -2.999998
v 16.805412 0.000000 0.568050
v 16.039143 0.000001 0.010134
v 16.224949 0.000000 0.719985
v 15.414759 0.000000 3.000000
v 16.852844 6.000000 0.562624
v 16.272381 5.999999 0.714559
v 16.364891 6.000001 0.391969
v 16.876469 6.000000 0.705517
v 14.886326 0.459851 2.720888
v 15.590074 0.459850 2.720888
v 15.685783 6.000000 1.500001
v 16.389530 6.000000 1.500001
v 14.752584 4.500000 3.000001
v 15.456331 4.500000 3.000001
v 14.884656 0.279114 2.720888
v 15.588405 0.279114 2.720888
v 14.711051 0.004362 3.000002
vn -0.9740 -0.0011 0.2264
vn -0.2264 0.0079 -0.9740
vn 0.9740 0.0011 -0.2264
vn 0.2264 -0.0079 0.9740
vn -0.0007 -1.0000 -0.0079
vn 0.0007 1.0000 0.0079
vn -0.5226 -0.0011 0.8526
vn -0.8526 0.0079 -0.5225
vn -0.0062 -1.0000 -0.0051
vn 0.0061 1.0000 0.0051
vn 0.2532 -0.0011 0.9674
vn -0.9674 0.0081 0.2532
vn -0.2532 0.0011 -0.9674
vn 0.9674 -0.0079 -0.2532
vn -0.0079 -1.0000 0.0009
vn 0.0079 1.0000 -0.0009
vn 0.8085 -0.0085 0.5884
vn 0.5014 0.0138 -0.8651
vn -0.8627 0.0018 -0.5057
vn -0.5057 -0.0180 0.8625
vn -0.0438 0.9965 0.0706
vn 0.0075 -0.9998 -0.0164
vn -0.0000 -0.7071 0.7071
vn -0.0000 -0.0000 -1.0000
vn -0.0000 -1.0000 -0.0000
vn -0.0000 -0.0000 1.0000
vn -0.0000 1.0000 -0.0000
vn 0.5226 0.0011 -0.8526
vn 0.8526 -0.0079 0.5225
vn -0.9674 0.0079 0.2532
vn -0.0000 -0.7071 -0.7071
vt 0.375000 0.000000
vt 0.625000 0.000000
vt 0.625000 0.250000
vt 0.375000 0.250000
vt 1.210900 0.012328
vt 1.210900 1.000073
vt 0.223155 1.000073
vt 0.223155 0.012328
vt 0.375000 0.500000
vt 0.625000 0.500000
vt 0.625000 0.750000
vt 0.375000 0.750000
vt 0.625000 1.000000
vt 0.375000 1.000000
vt 0.125000 0.500000
vt 0.125000 0.750000
vt 0.875000 0.500000
vt 0.875000 0.750000
vt 0.223155 0.505570
vt 0.359714 0.505691
vt 0.545520 0.382383
vt 0.548333 0.012328
vt 0.292697 0.500000
vt 0.302477 0.750000
vt 0.375116 0.000000
vt 0.375017 0.250000
vt 1.210900 0.012396
vt 1.090104 0.012328
vt 0.500120 1.000000
vt 0.500070 0.911162
vt 0.468782 0.846498
vt 0.375029 0.846323
vt 0.375116 1.000000
vt 0.155574 0.500000
vt 0.280542 0.678776
vt 0.285221 0.500000
vt 1.204699 0.003027
vt 1.204699 0.990772
vt 0.216954 0.990772
vt 0.216954 0.003027
vt 0.562500 0.524841
vt 0.562500 0.537763
vt 0.687500 0.546197
vt 0.687500 0.533275
vt 0.375000 0.222515
vt 0.375182 0.237176
vt 0.562500 0.236311
vt 0.562500 0.221649
vt 0.773443 0.557445
vt 0.779773 0.545352
vt 0.812500 0.547792
vt 0.812500 0.533131
vt 0.766332 0.547279
vt 0.779396 0.557937
vt 0.375000 0.533318
vt 0.375000 0.536999
vt 0.375146 0.524078
vt 0.249578 0.540493
vt 0.220001 0.544364
vt 0.226331 0.556457
vt 0.499939 0.750000
vt 0.499840 0.500000
vt 2.543811 2.418811
vt 2.543812 2.418811
vt 0.500021 0.250000
vt 0.500120 0.000000
vt 0.375000 0.822523
vt 0.468752 0.821811
vt 0.499961 0.774783
vt 0.577870 0.012328
vt 0.578562 0.382456
vt 0.834048 0.506072
vt 1.210900 0.506284
vt 0.625000 0.216869
vt 0.625000 0.202208
s 0
usemtl Wall_Material
f 1/1/1 2/2/1 4/3/1 3/4/1
f 3/5/2 4/6/2 8/7/2 7/8/2
f 7/9/3 8/10/3 6/11/3 5/12/3
f 5/12/4 6/11/4 2/13/4 1/14/4
f 3/15/5 7/9/5 5/12/5 1/16/5
f 8/10/6 4/17/6 2/18/6 6/11/6
f 9/1/7 10/2/7 12/3/7 11/4/7
f 11/5/8 12/6/8 14/7/8 44/19/8 48/20/8 50/21/8 54/22/8
f 11/15/9 54/23/9 41/24/9 9/16/9
f 14/10/10 12/17/10 10/18/10 13/11/10
f 15/1/11 38/25/11 40/26/11 17/4/11
f 17/5/12 40/27/12 39/28/12
f 21/9/13 22/10/13 20/11/13 19/12/13
f 19/12/14 20/11/14 16/13/14 42/29/14 31/30/14 34/31/14 35/32/14 38/33/14 15/14/14
f 17/15/15 39/34/15 36/35/15 37/36/15 21/9/15 19/12/15 15/16/15
f 22/10/16 18/17/16 16/18/16 20/11/16
f 23/1/17 24/2/17 26/3/17 25/4/17
f 25/37/18 26/38/18 30/39/18 29/40/18
f 29/9/19 30/10/19 28/11/19 27/12/19
f 27/12/20 28/11/20 24/13/20 23/14/20
f 25/15/21 29/9/21 27/12/21 23/16/21
f 30/10/22 26/17/22 24/18/22 28/11/22
f 33/41/23 34/42/23 31/43/23 32/44/23
f 41/45/24 54/46/24 50/47/24 51/48/24
f 32/44/25 31/43/25 42/49/25 43/50/25
f 49/51/25 48/52/25 44/53/25 45/54/25
f 36/55/26 35/56/26 34/42/26 33/41/26 37/57/26
f 35/56/27 36/55/27 39/58/27 40/59/27 38/60/27
f 45/61/28 44/62/28 14/10/28 13/11/28
f 46/63/24 47/63/24 53/64/24 52/64/24
f 43/65/11 42/66/11 16/2/11 18/3/11
f 41/67/29 51/68/29 49/69/29 45/61/29 13/11/29 10/13/29 9/14/29
f 37/70/30 33/71/30 32/72/30 43/73/30 18/6/30 22/7/30 21/8/30
f 51/48/31 50/47/31 48/74/31 49/75/31
