# Blender 4.3.2
# www.blender.org
mtllib entrance_door.mtl
o Entrance_Door
v 25.000000 0.200000 2.200000
v 25.000000 3.800000 2.200000
v 25.000000 0.200000 -2.200000
v 25.000000 3.800000 -2.200000
v 26.599998 0.200000 2.200000
v 26.599998 3.800000 2.200000
v 26.599998 0.200000 -2.200000
v 26.599998 3.800000 -2.200000
vn -1.0000 -0.0000 -0.0000
vn -0.0000 -0.0000 -1.0000
vn 1.0000 -0.0000 -0.0000
vn -0.0000 -0.0000 1.0000
vn -0.0000 -1.0000 -0.0000
vn -0.0000 1.0000 -0.0000
vt 0.935988 0.002970
vt 0.935989 0.947423
vt -0.952917 0.947423
vt -0.952917 0.002971
vt 0.000000 0.583333
vt 0.000000 0.416667
vt 0.333333 0.416667
vt 0.333333 0.583333
vt 0.333333 0.250000
vt 0.666667 0.250000
vt 0.666667 0.416667
vt 0.666667 0.583333
vt 0.333333 0.750000
vt 0.000000 0.750000
vt 0.666667 0.750000
s 0
usemtl Door
f 1/1/1 2/2/1 4/3/1 3/4/1
f 3/5/2 4/6/2 8/7/2 7/8/2
f 7/7/3 8/9/3 6/10/3 5/11/3
f 5/8/4 6/7/4 2/11/4 1/12/4
f 3/13/5 7/14/5 5/5/5 1/8/5
f 8/15/6 4/13/6 2/8/6 6/12/6
