# Blender 4.3.2
# www.blender.org
mtllib front_walls.mtl
o Front_Wall
v -13.859149 0.052963 -5.657822
v -13.859149 12.052963 -5.657822
v -13.859149 0.052963 -9.857822
v -13.859149 12.052963 -9.857822
v -8.859149 0.052963 -5.657822
v -8.859149 12.052963 -5.657822
v -8.859149 0.052963 -9.857822
v -8.859149 12.052963 -9.857822
v -13.859150 0.052963 9.833681
v -13.859150 12.052963 9.833681
v -13.859150 0.052963 5.633680
v -13.859150 12.052963 5.633680
v -8.859150 0.052963 9.833681
v -8.859150 12.052963 9.833681
v -8.859150 0.052963 5.633680
v -8.859150 12.052963 5.633680
v -13.857750 0.000000 6.018771
v -13.857750 12.000000 6.018771
v -13.857750 0.000000 -5.981229
v -13.857750 12.000000 -5.981229
v -12.057751 0.000000 6.018771
v -12.057751 12.000000 6.018771
v -12.057751 0.000000 -5.981229
v -12.057751 12.000000 -5.981229
vn -1.0000 -0.0000 -0.0000
vn -0.0000 -0.0000 -1.0000
vn 1.0000 -0.0000 -0.0000
vn -0.0000 -0.0000 1.0000
vn -0.0000 -1.0000 -0.0000
vn -0.0000 1.0000 -0.0000
vt 0.375000 0.000000
vt 0.625000 0.000000
vt 0.625000 0.250000
vt 0.375000 0.250000
vt 1.000000 0.000000
vt 1.000000 1.000000
vt 0.000000 1.000000
vt 0.000000 0.000000
vt 0.375000 0.750000
vt 0.625000 0.750000
vt 0.625000 1.000000
vt 0.375000 1.000000
vt 0.125000 0.500000
vt 0.375000 0.500000
vt 0.125000 0.750000
vt 0.625000 0.500000
vt 0.875000 0.500000
vt 0.875000 0.750000
vt 1.178649 -0.501090
vt 1.178649 0.874811
vt -0.197252 0.874811
vt -0.197251 -0.501090
s 0
usemtl Wall_Material
f 1/1/1 2/2/1 4/3/1 3/4/1
f 3/5/2 4/6/2 8/7/2 7/8/2
f 7/5/3 8/6/3 6/7/3 5/8/3
f 5/9/4 6/10/4 2/11/4 1/12/4
f 3/13/5 7/14/5 5/9/5 1/15/5
f 8/16/6 4/17/6 2/18/6 6/10/6
f 9/1/1 10/2/1 12/3/1 11/4/1
f 11/5/2 12/6/2 16/7/2 15/8/2
f 15/5/3 16/6/3 14/7/3 13/8/3
f 13/9/4 14/10/4 10/11/4 9/12/4
f 11/13/5 15/14/5 13/9/5 9/15/5
f 16/16/6 12/17/6 10/18/6 14/10/6
f 17/1/1 18/2/1 20/3/1 19/4/1
f 19/4/2 20/3/2 24/16/2 23/14/2
f 23/19/3 24/20/3 22/21/3 21/22/3
f 21/9/4 22/10/4 18/11/4 17/12/4
f 19/13/5 23/14/5 21/9/5 17/15/5
f 24/16/6 20/17/6 18/18/6 22/10/6
