# Blender 4.3.2
# www.blender.org
mtllib left_walls.mtl
o Left_Wall
v -12.647432 0.000000 10.355669
v -12.647432 12.000000 10.355669
v -12.647432 0.000000 9.755669
v -12.647432 12.000000 9.755669
v 5.352568 0.000000 10.355669
v 5.352568 12.000000 10.355669
v 5.352568 0.000000 9.755669
v 5.352568 12.000000 9.755669
vn -1.0000 -0.0000 -0.0000
vn -0.0000 -0.0000 -1.0000
vn 1.0000 -0.0000 -0.0000
vn -0.0000 -0.0000 1.0000
vn -0.0000 -1.0000 -0.0000
vn -0.0000 1.0000 -0.0000
vt 0.375000 0.000000
vt 0.625000 0.000000
vt 0.625000 0.250000
vt 0.375000 0.250000
vt 1.210900 0.012328
vt 1.210900 1.000073
vt 0.223155 1.000073
vt 0.223155 0.012328
vt 0.375000 0.500000
vt 0.625000 0.500000
vt 0.625000 0.750000
vt 0.375000 0.750000
vt 0.625000 1.000000
vt 0.375000 1.000000
vt 0.125000 0.500000
vt 0.125000 0.750000
vt 0.875000 0.500000
vt 0.875000 0.750000
s 0
usemtl Wall_Material
f 1/1/1 2/2/1 4/3/1 3/4/1
f 3/5/2 4/6/2 8/7/2 7/8/2
f 7/9/3 8/10/3 6/11/3 5/12/3
f 5/12/4 6/11/4 2/13/4 1/14/4
f 3/15/5 7/9/5 5/12/5 1/16/5
f 8/10/6 4/17/6 2/18/6 6/11/6
